<svg width="322" height="322" viewBox="0 0 322 322" fill="none" xmlns="http://www.w3.org/2000/svg">
<path d="M179.004 51.4228C183.785 52.1464 188.677 51.0985 192.341 49.1285L193.244 43.1644C193.819 39.3598 195.346 37.9604 198.244 37.9256L198.36 37.1544L182.679 34.7814L182.562 35.5526C186.459 36.563 189.533 39.1845 188.786 44.1203L188.164 48.2335C185.781 50.0817 182.311 50.7663 179.123 50.2839C171.463 49.1246 167.116 42.0507 168.797 30.9451C170.462 19.9424 176.496 14.1238 183.077 15.1196C189.555 16.1 193.472 23.5822 194.023 28.9774L194.794 29.0941C195.336 25.8627 195.782 22.5644 196.118 19.302C193 16.6212 188.338 14.7588 184.328 14.1519C173.84 12.5647 165.04 19.2797 163.429 29.9225C161.788 40.771 168.515 49.8356 179.004 51.4228Z" fill="black"/>
<path d="M216.027 54.8455L219.737 46.2523C222.067 40.8578 220.419 36.8043 215.263 34.578C210.871 32.6816 207.032 33.1764 204.397 35.6068C204.569 37.4372 204.851 39.1449 205.297 40.8668L206.048 40.9644C208.026 36.7774 210.95 33.6787 214.53 35.2247C217.681 36.5852 217.74 40.1222 215.967 44.2278L214.771 46.9967C207.344 44.1293 199.896 43.4058 197.485 48.9913C195.856 52.7627 198.107 55.9439 201.258 57.3044C204.839 58.8504 209.048 57.4962 211.774 54.5949C211.452 55.0789 211.136 55.6789 210.868 56.2995C210.373 57.4452 209.905 59.0553 209.62 60.6318C211.845 61.2524 213.679 61.988 216.38 63.2107L216.668 62.5423C214.392 60.993 214.254 58.9511 216.027 54.8455ZM203.097 56.4559C201.044 55.5695 200.641 53.3561 201.919 50.3963C203.939 45.7178 207.504 45.3314 214.4 47.8561L212.813 51.532C211.494 54.5874 206.296 57.837 203.097 56.4559Z" fill="black"/>
<path d="M243.065 50.5096C240.402 48.6019 237.096 48.2166 234.325 49.4944C235.1 48.7701 235.809 47.8704 236.354 47.1094L244.227 36.1183C241.756 34.9241 239.382 33.4158 237.522 32.0834L237.129 32.633C239.03 34.4429 239.022 36.4196 236.569 39.8438L222.942 58.8669C221.095 61.4456 219.159 62.8092 216.668 63.5192L216.703 64.1841C219.06 64.4654 220.807 64.4375 222.778 64.1862C222.817 66.9004 224.258 69.5319 226.71 71.2882C231.487 74.7099 238.869 74.0488 244.107 66.7354C249.013 59.8871 247.377 53.5982 243.065 50.5096ZM227.189 70.3518C223.934 68.0202 224.453 63.723 227.421 59.5802L233.628 50.9141C236.103 49.4243 239.204 49.4707 241.275 50.9545C244.234 53.0742 244.615 57.6325 239.77 64.3963C235.47 70.3992 230.782 72.9257 227.189 70.3518Z" fill="black"/>
<path d="M246.077 86.7991C242.627 82.9786 244.647 78.0007 249.626 73.5047L250.59 72.6334L261.917 85.1758C268.601 78.9995 267.099 73.0691 263.858 69.48C259.432 64.5789 252.328 64.5485 246.346 69.9506C239.747 75.9103 240.486 83.0904 244.215 87.2198C247.421 90.7702 252.424 91.5772 256.811 89.297L256.307 88.3509C251.49 90.3883 248.029 88.9603 246.077 86.7991ZM262.989 69.9144C265.394 72.5772 263.796 76.4722 259.386 80.6656L251.439 71.8667C254.933 69.0624 260.061 66.6727 262.989 69.9144Z" fill="black"/>
<path d="M275.601 125.453L285.353 110.269L296.939 114.87C299.297 115.807 301.447 117.056 303.649 119.52L304.322 119.242C303.748 118.128 302.797 116.102 301.901 113.941C301.006 111.779 300.167 109.481 299.586 107.808L298.914 108.086C299.469 110.107 298.89 111.698 297.641 112.215C296.296 112.773 293.789 112.291 290.092 110.839L276.807 105.535L285.935 101.755C291.892 99.2873 294.644 99.2731 296.546 102.369L297.218 102.091C296.071 99.8641 295.227 97.9623 294.411 95.9926C293.595 94.0229 292.856 91.9653 292.104 89.7437L291.432 90.0223C292.276 93.5561 290.34 95.54 284.383 98.0074L269.97 103.977C264.397 106.285 260.969 106.298 259.088 103.25L258.415 103.528C259.602 105.851 260.506 107.897 261.362 109.963C262.217 112.028 262.985 114.018 263.688 116.26L264.361 115.981C263.644 112.619 265.949 110.032 271.522 107.724L275.174 106.212L281.161 108.573L272.248 122.114C270.787 124.295 269.472 125.74 268.126 126.973C268.679 128.038 269.344 129.508 270.021 131.141C270.618 132.582 271.206 134.14 271.687 135.573L272.312 135.314C272.102 132.361 273.165 129.22 275.601 125.453Z" fill="black"/>
<path d="M273.212 146.595C272.461 141.502 276.904 138.482 283.541 137.503L284.827 137.314L287.291 154.033C296.279 152.603 298.319 146.836 297.614 142.052C296.651 135.518 290.758 131.551 282.784 132.727C273.987 134.023 270.618 140.407 271.429 145.912C272.127 150.644 275.841 154.092 280.756 154.629L280.862 153.562C275.724 152.584 273.637 149.476 273.212 146.595ZM296.65 141.931C297.174 145.481 293.684 147.835 287.687 148.876L285.958 137.147C290.421 136.752 296.013 137.61 296.65 141.931Z" fill="black"/>
<path d="M273.189 157.263C273.367 159.242 273.389 161.167 273.359 163.09C273.329 165.066 273.245 167.093 273.006 169.118L273.734 169.129C274.248 166.173 275.769 165.312 279.773 165.374L311.281 165.86C310.853 163.253 310.748 159.975 310.78 157.896L310.052 157.884C309.646 160.634 307.601 161.695 303.857 161.637L279.836 161.266C275.885 161.205 274.297 159.62 273.917 157.274L273.189 157.263Z" fill="black"/>
<path d="M272.919 170.304C272.867 172.29 272.667 174.204 272.416 176.112C272.158 178.071 271.841 180.075 271.37 182.058L272.092 182.153C272.943 179.276 274.554 178.596 278.523 179.119L309.765 183.236C309.641 180.597 309.914 177.328 310.186 175.266L309.464 175.171C308.743 177.856 306.59 178.674 302.878 178.185L279.06 175.047C275.142 174.53 273.747 172.773 273.641 170.399L272.919 170.304Z" fill="black"/>
<path d="M268.916 195.543C270.394 190.612 275.698 189.758 282.124 191.684L283.369 192.057L278.518 208.246C287.265 210.758 291.557 206.399 292.945 201.767C294.84 195.44 291.183 189.35 283.462 187.037C274.944 184.484 269.188 188.839 267.591 194.169C266.217 198.751 268.121 203.448 272.346 206.016L272.893 205.095C268.654 202.033 268.08 198.332 268.916 195.543ZM292.123 201.249C291.093 204.686 286.934 205.34 281.061 203.742L284.465 192.385C288.674 193.918 293.377 197.065 292.123 201.249Z" fill="black"/>
<path d="M276.823 235.395C277.572 234.026 278.441 232.546 279.501 230.933L278.862 230.583C277.491 232.441 275.619 232.721 273.839 231.748C273.018 231.299 272.251 230.643 271.517 229.708L263.204 219.117L278.085 220.083C279.176 220.146 280.076 220.342 280.806 220.741C282.129 221.465 282.634 222.926 281.756 225.291L282.395 225.64C283.256 223.74 284.233 221.845 285.206 220.065C286.204 218.24 287.198 216.532 288.258 214.918L287.619 214.569C286.181 216.331 284.019 216.275 279.653 216.022L260.008 214.88L259.188 213.78C256.569 210.332 254.659 206.562 256.081 203.962C257.104 202.091 258.665 201.404 260.384 200.862L260.252 200.019C257.223 200.141 254.11 200.631 251.27 201.271C252.585 206.02 255.025 210.555 259.513 216.328L271.536 231.733C273.538 234.25 274.801 236.601 274.396 238.75L275.035 239.099C275.472 237.975 276.075 236.764 276.823 235.395Z" fill="black"/>
<path d="M232.068 274.155L232.54 274.709C234.221 273.073 235.46 271.882 236.845 270.702C238.31 269.454 239.882 268.252 241.408 267.157L240.936 266.603C239.62 267.383 238.118 267.705 237.039 266.438C236.23 265.488 235.993 263.846 235.998 262.408L235.956 257.867L250.329 258.945C247.896 264.911 247.082 269.087 249.644 272.096C252.476 275.422 257.486 275.048 261.366 271.744C265.602 268.137 266.617 262.833 263.583 259.27C260.919 256.142 255.778 255.398 252.299 255.082C254.117 250.802 255.54 245.014 252.303 241.213C248.999 237.333 243.114 238.042 239.155 241.414C235.355 244.65 234.67 249.059 234.474 253.801L232.788 253.666C230.109 253.489 228.215 253.189 226.751 252.592C225.987 253.38 224.991 254.296 223.606 255.476C222.576 256.352 220.999 257.628 219.348 258.897L219.786 259.412C223.384 257.782 227.559 257.231 232.691 257.642L234.816 257.813L234.887 263.831C234.909 267.706 234.363 270.835 232.068 274.155ZM260.838 270.964C258.621 272.852 255.769 272.071 253.308 269.181C251.69 267.28 250.227 264.36 251.209 259.016C253.881 259.267 257.963 259.889 260.593 262.977C262.852 265.629 263.174 268.975 260.838 270.964ZM238.786 244.187C241.676 241.726 246.159 241.938 249.328 245.659C251.52 248.233 252.18 251.495 251.346 255.006L250.833 254.965L235.647 253.895C235.9 248.899 236.608 246.042 238.786 244.187Z" fill="black"/>
<path d="M210.128 262.976C205.345 264.738 201.135 266.248 197.056 267.657C193.419 268.914 189.765 270.121 185.504 271.483C186.411 274.746 187.383 277.876 188.486 281.071L189.175 280.833C189.025 277.694 190.027 274.542 191.143 272.836C192.437 270.848 193.433 270.229 196.726 269.091C201.346 267.495 203.208 270.813 204.6 274.843L209.983 290.424C212.123 296.617 212.087 299.38 208.654 301.226L208.892 301.914C211.151 300.969 213.132 300.174 215.294 299.427C217.359 298.714 219.506 298.082 221.818 297.448L221.58 296.76C217.444 297.529 215.883 294.602 213.964 289.048L208.938 274.5C206.934 268.701 207.112 265.393 210.366 263.664L210.128 262.976Z" fill="black"/>
<path d="M172.787 273.833C177.901 273.239 180.783 277.773 181.557 284.436L181.707 285.728L164.92 287.677C166.073 296.705 171.775 298.922 176.579 298.364C183.139 297.602 187.285 291.833 186.355 283.827C185.329 274.994 179.052 271.431 173.525 272.072C168.773 272.624 165.213 276.231 164.526 281.127L165.589 281.265C166.723 276.16 169.895 274.169 172.787 273.833ZM176.729 297.404C173.165 297.818 170.919 294.257 170.062 288.232L181.839 286.864C182.097 291.336 181.068 296.9 176.729 297.404Z" fill="black"/>
<path d="M142.356 279.729L141.527 289.052C141.006 294.905 143.842 298.237 149.436 298.735C154.201 299.159 157.691 297.485 159.432 294.351C158.694 292.667 157.891 291.134 156.927 289.639L156.184 289.781C155.618 294.377 153.813 298.237 149.929 297.891C146.51 297.587 145.346 294.247 145.742 289.792L146.009 286.788C153.961 287.182 161.26 285.534 161.799 279.474C162.163 275.382 159.028 273.068 155.609 272.764C151.724 272.418 148.151 275.024 146.473 278.633C146.627 278.073 146.739 277.404 146.799 276.731C146.91 275.488 146.85 273.812 146.625 272.226C144.319 272.334 142.346 272.211 139.398 271.896L139.334 272.621C141.981 273.379 142.752 275.275 142.356 279.729ZM154.129 274.146C156.356 274.344 157.433 276.319 157.148 279.531C156.696 284.606 153.432 286.091 146.092 285.856L146.447 281.868C146.741 278.553 150.658 273.837 154.129 274.146Z" fill="black"/>
<path d="M115.06 271.966L112.03 281.425C110.157 287.268 112.433 290.563 116.048 291.721C120.257 293.07 124.855 291.158 127.61 287.672C126.998 288.732 126.421 290.021 125.945 291.507L121.185 306.363C123.953 306.758 126.972 307.562 129.002 308.212L129.208 307.568C126.76 306.347 126.178 304.413 127.447 300.452L134.619 278.068C136.015 273.711 137.616 272.804 140.282 273.003L140.504 272.31C138.559 271.905 136.711 271.367 134.829 270.764C132.997 270.177 131.131 269.525 129.362 268.74L129.14 269.433C131.788 270.882 132.053 272.441 130.657 276.799L128.214 284.425C126.96 288.338 121.836 291.719 118.073 290.514C114.259 289.292 115.473 284.821 116.33 282.147L119.17 273.283C120.503 269.123 121.884 267.709 124.733 268.021L124.955 267.328C122.96 266.907 121.062 266.354 119.23 265.767C117.447 265.196 115.73 264.591 114.06 263.838L113.838 264.531C116.124 265.918 116.345 267.955 115.06 271.966Z" fill="black"/>
<path d="M96.0666 251.814C89.7261 247.095 83.6345 247.876 80.3745 252.256C73.7303 261.183 88.5552 271.05 82.532 279.143C80.1724 282.313 76.5867 282.95 73.6667 280.777C70.6216 278.51 70.5948 274.017 72.0485 267.71L71.4645 267.275C69.6841 269.58 68.0386 271.791 66.5803 274.011C67.787 276.919 70.1675 279.469 72.2532 281.021C76.8 284.405 83.167 284.996 86.9238 279.948C93.8163 270.688 79.3464 261.214 85.1213 253.455C87.2325 250.619 91.2015 249.554 94.8306 252.255C99.0437 255.391 98.8027 260.592 97.0036 266.318L97.6293 266.784C99.4611 264.323 101.116 261.925 102.668 259.579C101.901 257.388 99.362 254.267 96.0666 251.814Z" fill="black"/>
<path d="M77.4349 234.962C74.3019 231.416 69.4893 230.603 65.0597 233.128L65.5878 234.119C70.6391 231.668 74.2046 233.584 75.9949 235.61C78.9903 239 77.4266 243.435 71.776 248.427C65.1121 254.314 60.5868 254.219 58.4177 251.764C56.2487 249.309 57.1889 245.425 60.3946 240.65L59.9126 240.104C58.0621 240.837 56.2415 241.682 54.4898 242.605C53.9068 245.48 54.402 248.789 57.294 252.063C61.701 257.051 69.1233 257.362 75.1636 252.026C80.7753 247.068 81.8763 239.989 77.4349 234.962Z" fill="black"/>
<path d="M51.8445 210.403L43.1479 215.2C37.7751 218.164 37.1673 222.122 39.0008 225.446C41.1357 229.316 45.7922 231.082 50.1883 230.439C49.0155 230.789 47.7108 231.331 46.3448 232.084L32.6853 239.619C34.4262 241.806 36.0698 244.463 37.0996 246.33L37.6915 246.003C36.7497 243.434 37.6542 241.629 41.2967 239.62L61.8771 228.267C65.8839 226.057 67.6705 226.496 69.4727 228.472L70.1102 228.12C68.9736 226.49 67.9988 224.831 67.0443 223.1C66.115 221.416 65.2061 219.66 64.4589 217.875L63.8215 218.227C64.7523 221.098 63.8745 222.414 59.8677 224.624L52.8558 228.492C49.2588 230.477 43.2113 229.418 41.3024 225.958C39.3684 222.452 43.3203 220.034 45.779 218.678L53.9292 214.182C57.7538 212.072 59.7289 211.992 61.5861 214.175L62.2235 213.823C61.0618 212.148 60.0619 210.443 59.1325 208.758C58.2283 207.119 57.3948 205.5 56.6978 203.806L56.0604 204.158C56.7698 206.736 55.5326 208.368 51.8445 210.403Z" fill="black"/>
<path d="M41.2967 169.368L30.8146 171.576C24.8612 172.83 23.2384 175.722 23.9136 178.928C24.6958 182.642 28.0518 185.708 32.069 186.616C27.5859 188.038 26.389 190.682 26.9891 193.531C27.8571 197.653 31.6308 200.684 35.9427 201.477C34.617 201.49 33.211 201.627 32.0407 201.873L29.1912 202.474C30.1341 204.932 30.8038 207.607 31.3825 210.355L32.0948 210.205C31.7866 206.975 33.7951 205.915 37.2552 205.186L48.3479 202.85C52.3169 202.014 53.9265 202.844 55.1559 205.402L55.8683 205.252C55.2575 203.361 54.8209 201.54 54.4244 199.657C54.0386 197.825 53.7037 195.983 53.5 194.006L52.7876 194.156C52.745 196.982 51.6122 197.911 47.745 198.725L39.8072 200.397C35.4312 201.319 29.8845 198.448 29.1344 194.886C28.545 192.088 31.9488 190.839 35.358 190.122L45.3313 188.021C48.5369 187.346 50.8134 187.557 51.9625 190.238L52.6749 190.088C52.0641 188.197 51.6274 186.376 51.2417 184.544C50.8559 182.713 50.5424 180.972 50.3816 179.199L49.6692 179.349C49.5623 181.869 47.8216 183.192 44.3615 183.921L36.3218 185.614C32.302 186.461 26.809 183.845 26.0588 180.283C25.4802 177.535 28.884 176.287 32.4967 175.526L42.2664 173.468C45.7774 172.729 47.8128 173.31 48.962 175.991L49.6743 175.841C49.0421 173.848 48.5626 171.824 48.134 169.788C47.7375 167.905 47.4026 166.063 47.2418 164.29L46.5294 164.44C46.4867 167.265 44.7568 168.64 41.2967 169.368Z" fill="black"/>
<path d="M18.774 158.166C18.8221 156.607 17.6149 155.269 16.0556 155.221C14.4964 155.172 13.1568 156.432 13.1087 157.991C13.0605 159.55 14.3198 160.89 15.879 160.938C17.4383 160.986 18.7258 159.725 18.774 158.166ZM48.9573 164.613C48.8592 162.737 48.8179 160.707 48.8805 158.68C48.9431 156.653 49.1096 154.629 49.3201 152.866L48.5925 152.844C48.0005 155.167 46.4986 156.629 42.4966 156.506L23.6815 155.924C24.0187 158.484 24.0327 161.398 23.9605 163.737L24.6881 163.759C25.129 161.276 27.2498 159.989 30.992 160.104L42.3745 160.456C46.3247 160.578 47.8261 162.497 48.2297 164.59L48.9573 164.613Z" fill="black"/>
<path d="M46.7259 127.609L16.043 121.147C15.8687 124.246 15.4641 126.924 15.0354 128.959L15.6969 129.099C16.7469 126.131 18.5145 125.813 22.5852 126.67L27.6227 127.731C28.4369 127.903 29.3635 128.045 30.1991 128.114C28.0752 129.367 26.5459 131.33 26.0315 133.773C25.0135 138.607 27.6322 145.854 36.5877 147.74C44.5256 149.412 50.5088 145.73 51.6126 140.489C52.4056 136.723 50.124 133.426 46.8086 131.506C47.3576 131.675 47.9174 131.793 48.4262 131.9C50.258 132.286 51.8274 132.403 53.1531 132.417C53.247 130.205 53.6355 128.108 54.2356 125.258L53.5232 125.108C52.2937 127.666 50.4913 128.402 46.7259 127.609ZM50.4878 139.774C49.7162 143.437 44.8312 144.428 37.6057 142.906C30.4311 141.395 26.3418 138.355 27.3384 133.623C27.7992 131.435 29.358 129.584 31.7952 128.61L42.0737 130.774C47.0604 131.825 51.3451 135.703 50.4878 139.774Z" fill="black"/>
<path d="M55.794 110.513C57.094 112.403 57.8951 114.817 57.2782 116.306C56.6216 117.892 55.0294 117.795 51.7145 116.422L35.4281 109.677L37.796 103.96L36.7391 103.522L34.411 109.143L26.436 105.84L26.1375 106.56C29.5267 108.977 32.6765 113.602 31.8203 117.3L32.4929 117.579L34.1046 113.687L50.2949 120.393C53.7059 121.806 56.7942 121.959 58.1473 118.692C59.1621 116.242 58.807 112.887 56.4768 109.952L55.794 110.513Z" fill="black"/>
</svg>
