<svg width="425" height="598" viewBox="0 0 425 598" fill="none" xmlns="http://www.w3.org/2000/svg">
<path d="M52.84 568.123C52.84 561.613 50.46 555.313 47.1 550.833H38.98C33.8 550.833 31.63 549.083 31 545.233H29.95L29.95 566.583H31C31.56 561.193 34.43 556.573 41.15 556.573H46.75C49.69 559.373 51.3 563.853 51.3 568.193C51.3 578.623 42.76 585.833 27.64 585.833C12.66 585.833 3.7 578.973 3.7 570.013C3.7 561.193 12.87 554.473 19.94 552.653L19.94 551.603C15.53 551.533 11.05 551.603 6.64 551.813C3.7 556.503 2.16 563.083 2.16 568.543C2.16 582.823 12.87 593.183 27.36 593.183C42.13 593.183 52.84 582.403 52.84 568.123Z" fill="white"/>
<path d="M41.85 517.306H29.25C21.34 517.306 17.21 521.506 17.21 529.066C17.21 535.506 19.87 539.986 24.28 541.946C26.45 540.756 28.41 539.496 30.3 538.026L30.02 537.046C23.79 536.836 18.4 534.876 18.4 529.626C18.4 525.006 22.74 523.046 28.76 523.046H32.82C33.24 533.756 36.32 543.346 44.51 543.346C50.04 543.346 52.77 538.866 52.77 534.246C52.77 528.996 48.85 524.516 43.81 522.696C44.58 522.836 45.49 522.906 46.4 522.906C48.08 522.906 50.32 522.626 52.42 522.136C52 519.056 51.93 516.396 52 512.406H51.02C50.32 516.046 47.87 517.306 41.85 517.306ZM50.74 532.426C50.74 535.436 48.22 537.116 43.88 537.116C37.02 537.116 34.64 532.916 34.08 523.046H39.47C43.95 523.046 50.74 527.736 50.74 532.426Z" fill="white"/>
<path d="M17.21 489.799C17.21 494.209 19.38 498.129 22.95 500.159C21.55 499.879 20.01 499.809 18.75 499.809H0.549999C1.18 503.449 1.39 507.229 1.39 510.309H2.3C2.79 506.809 4.96 505.269 10.63 505.269H42.13C46.4 505.269 49.41 506.319 52.14 508.489L52.84 507.929C51.3 505.129 49.9 503.239 48.08 501.279C51.02 499.109 52.77 495.469 52.77 491.409C52.77 483.499 46.26 475.939 34.15 475.939C22.81 475.939 17.21 482.659 17.21 489.799ZM51.37 491.619C51.37 497.009 46.26 499.809 39.4 499.809H25.05C21.48 498.269 19.1 494.839 19.1 491.409C19.1 486.509 23.79 482.519 34.99 482.519C44.93 482.519 51.37 485.669 51.37 491.619Z" fill="white"/>
<path d="M50.6 454.619C50.6 461.549 44.09 464.699 35.06 464.699H33.31V441.949C21.06 442.089 17.21 449.369 17.21 455.879C17.21 464.769 24.28 471.209 35.13 471.209C47.1 471.209 52.84 463.369 52.84 455.879C52.84 449.439 48.57 444.119 42.13 442.439L41.78 443.839C48.43 446.149 50.6 450.699 50.6 454.619ZM18.47 456.229C18.47 451.399 23.58 448.949 31.77 448.739V464.699C25.75 464.349 18.47 462.109 18.47 456.229Z" fill="white"/>
<path d="M41.92 384.384L21.97 398.244L9.93 386.554C7.48 384.174 5.45 381.514 3.98 377.314H3C3.14 378.994 3.28 382.004 3.28 385.154C3.28 388.304 3.14 391.594 3 393.974H3.98C4.33 391.174 5.87 389.494 7.69 389.494C9.65 389.494 12.52 391.384 16.37 395.094L30.16 408.534H16.86C8.18 408.534 4.75 407.134 3.98 402.304H3C3.28 405.664 3.35 408.464 3.35 411.334C3.35 414.204 3.21 417.144 3 420.294H3.98C4.75 415.464 8.18 413.994 16.86 413.994H37.86C45.98 413.994 50.25 415.744 51.02 420.504H52C51.72 417.004 51.65 413.994 51.65 410.984C51.65 407.974 51.72 405.104 52 401.954H51.02C50.18 406.504 45.98 408.534 37.86 408.534H32.54L26.31 402.514L44.37 390.264C47.31 388.304 49.69 387.184 52 386.344C51.86 384.734 51.79 382.564 51.79 380.184C51.79 378.084 51.86 375.844 52 373.814H51.09C49.83 377.594 46.89 380.954 41.92 384.384Z" fill="white"/>
<path d="M50.6 355.512C50.6 362.442 44.09 365.592 35.06 365.592H33.31V342.842C21.06 342.982 17.21 350.262 17.21 356.772C17.21 365.662 24.28 372.102 35.13 372.102C47.1 372.102 52.84 364.262 52.84 356.772C52.84 350.332 48.57 345.012 42.13 343.332L41.78 344.732C48.43 347.042 50.6 351.592 50.6 355.512ZM18.47 357.122C18.47 352.292 23.58 349.842 31.77 349.632V365.592C25.75 365.242 18.47 363.002 18.47 357.122Z" fill="white"/>
<path d="M52 339.161C51.72 336.501 51.65 333.911 51.65 331.321C51.65 328.661 51.72 325.931 52 323.201H51.02C50.39 327.191 48.36 328.381 42.97 328.381H0.549999C1.18 331.881 1.39 336.291 1.39 339.091H2.37C2.86 335.381 5.59 333.911 10.63 333.911H42.97C48.29 333.911 50.46 336.011 51.02 339.161H52Z" fill="white"/>
<path d="M52 320.056C51.72 317.396 51.65 314.806 51.65 312.216C51.65 309.556 51.72 306.826 52 304.096H51.02C50.39 308.086 48.36 309.276 42.97 309.276H0.549999C1.18 312.776 1.39 317.186 1.39 319.986H2.37C2.86 316.276 5.59 314.806 10.63 314.806H42.97C48.29 314.806 50.46 316.906 51.02 320.056H52Z" fill="white"/>
<path d="M50.6 283.868C50.6 290.798 44.09 293.948 35.06 293.948H33.31V271.198C21.06 271.338 17.21 278.618 17.21 285.128C17.21 294.018 24.28 300.458 35.13 300.458C47.1 300.458 52.84 292.618 52.84 285.128C52.84 278.688 48.57 273.368 42.13 271.688L41.78 273.088C48.43 275.398 50.6 279.948 50.6 283.868ZM18.47 285.478C18.47 280.648 23.58 278.198 31.77 277.988V293.948C25.75 293.598 18.47 291.358 18.47 285.478Z" fill="white"/>
<path d="M18.33 238.439C18.33 240.539 18.26 242.849 18.05 245.439H19.03C19.45 242.359 21.48 240.819 24.21 240.819C25.47 240.819 26.8 241.099 28.27 241.729L44.93 248.869L26.73 257.339C25.4 257.969 24.21 258.319 23.09 258.319C21.06 258.319 19.52 256.919 19.03 253.559H18.05C18.26 256.359 18.33 259.229 18.33 261.959C18.33 264.759 18.26 267.419 18.05 270.009H19.03C19.59 266.999 22.18 265.669 27.5 263.149L51.44 251.809L53.12 252.579C58.44 254.959 63.13 258.179 63.13 262.169C63.13 265.039 61.73 266.859 60.05 268.609L60.75 269.519C64.25 267.419 67.61 264.829 70.55 262.239C65.93 257.479 60.12 253.699 51.09 249.779L26.94 239.349C22.95 237.669 19.94 235.709 19.03 232.909H18.05C18.26 234.519 18.33 236.339 18.33 238.439Z" fill="white"/>
<path d="M25.26 164.706H24.28C24.49 167.856 24.63 170.166 24.63 172.616C24.63 175.206 24.49 177.866 24.28 180.386H25.26C25.61 178.356 26.59 176.536 28.83 176.536C30.51 176.536 32.4 177.726 33.87 178.986L38.56 182.906L24.91 196.696C20.92 188.996 17.35 184.516 12.03 184.516C6.15 184.516 2.16 189.976 2.16 196.836C2.16 204.326 6.71 209.996 13.01 209.996C18.54 209.996 23.79 205.376 27.15 202.086C29.95 207.686 34.64 214.196 41.36 214.196C48.22 214.196 52.63 207.546 52.63 200.546C52.63 193.826 48.71 189.276 44.02 184.936L45.63 183.326C48.15 180.736 50.11 179.056 52 178.076C51.86 176.606 51.79 174.786 51.79 172.336C51.79 170.516 51.86 167.786 52 164.986H51.09C49.62 170.096 46.54 174.856 41.64 179.756L39.61 181.786L33.38 176.606C29.39 173.246 26.66 169.956 25.26 164.706ZM3.42 196.976C3.42 193.056 6.71 190.816 11.82 190.816C15.18 190.816 19.45 191.866 24.07 197.536C21.48 200.056 17.28 203.696 11.82 203.696C7.13 203.696 3.42 201.106 3.42 196.976ZM50.11 197.746C50.11 202.856 45.98 207.266 39.4 207.266C34.85 207.266 30.93 205.096 28.06 201.176L28.55 200.686L42.9 186.056C47.8 190.676 50.11 193.896 50.11 197.746Z" fill="white"/>
<path d="M52 144.73C51.86 137.87 51.79 131.85 51.79 126.04C51.79 120.86 51.86 115.68 52 109.66C47.45 109.38 43.04 109.24 38.49 109.24V110.22C42.55 111.41 46.12 114.07 47.8 116.24C49.76 118.76 50.11 120.3 50.11 124.99C50.11 131.57 45.07 132.48 39.33 132.48H17.14C8.32 132.48 4.82 131.22 3.98 126.04H3C3.21 129.33 3.35 132.2 3.35 135.28C3.35 138.22 3.21 141.23 3 144.45H3.98C4.82 138.85 9.23 138.15 17.14 138.15H37.86C46.12 138.15 50.25 139.83 51.02 144.73H52Z" fill="white"/>
<path d="M56.8306 93.1145C54.0304 99.4536 46.8027 99.7044 38.5427 96.0556L36.9419 95.3485L46.1347 74.5385C34.8727 69.7166 28.4094 74.8201 25.7788 80.7749C22.1866 88.9069 26.0514 97.6545 35.9762 102.039C46.9254 106.876 55.3439 102.024 58.3705 95.1722C60.9727 89.2814 59.2165 82.6897 54.0046 78.5507L53.1187 79.6898C58.2682 84.49 58.4146 89.5288 56.8306 93.1145ZM26.7899 81.6042C28.7416 77.1861 34.4059 77.0099 41.9823 80.1272L35.5332 94.7262C30.168 91.9735 24.414 86.9828 26.7899 81.6042Z" fill="white"/>
<path d="M75.7815 59.8045L68.7252 49.3657C64.2955 42.8124 58.503 41.7429 52.2397 45.9767C46.9043 49.5832 44.6824 54.2959 45.5283 59.0471C47.7294 60.1785 49.8709 61.0967 52.1472 61.8393L52.8023 61.0585C49.4874 55.7794 48.0926 50.2163 52.4421 47.2762C56.2697 44.6889 60.324 47.1868 63.6954 52.1742L65.9691 55.5379C57.3313 61.8837 51.1111 69.806 55.6977 76.5912C58.7946 81.1727 64.035 80.9255 67.8626 78.3382C72.2121 75.3981 73.7284 69.6416 72.4137 64.4468C72.7289 65.1631 73.1805 65.9563 73.6902 66.7102C74.631 68.102 76.1174 69.801 77.6994 71.2664C80.0159 69.1936 82.1805 67.6459 85.5253 65.4694L84.9765 64.6575C81.5688 66.116 79.1529 64.7919 75.7815 59.8045ZM68.2336 75.6372C65.7399 77.3229 62.9368 76.1759 60.5063 72.5803C56.6645 66.897 58.8112 62.5731 66.6747 56.5817L69.6932 61.0472C72.2021 64.7588 72.1191 73.0107 68.2336 75.6372Z" fill="white"/>
<path d="M115.125 44.0862L110.845 31.4198C108.201 23.5946 103.102 21.8447 98.2612 23.4805C92.6243 25.3853 89.1726 31.1328 88.9758 37.1104C88.792 35.4731 88.3859 33.6153 87.7136 31.6258L80.9908 11.731C77.6778 13.5155 73.766 15.059 71.0471 15.9778L71.3384 16.8399C74.9661 16.2052 77.1422 17.8343 78.9349 23.1396L89.0639 53.1144C91.0359 58.9503 90.027 61.2123 86.9801 63.1286L87.2938 64.057C89.7242 62.9402 92.1555 62.0447 94.6755 61.1931C97.1292 60.364 99.6716 59.5788 102.215 59.0149L101.901 58.0865C97.8747 58.6343 96.3412 57.1575 94.3692 51.3217L90.9182 41.109C89.1478 35.87 91.9936 28.1107 97.0336 26.4076C102.14 24.6821 104.4 30.4945 105.61 34.0756L109.621 45.9462C111.503 51.5167 111.138 54.1525 107.803 56.092L108.117 57.0205C110.614 55.8812 113.111 54.9634 115.565 54.1342C117.952 53.3275 120.296 52.6095 122.707 52.0904L122.393 51.162C118.808 51.4867 116.94 49.4578 115.125 44.0862Z" fill="white"/>
<path d="M146.942 52.84C157.582 52.84 163.532 47.1 163.532 39.75C163.532 24.77 139.592 26.03 139.592 12.45C139.592 7.13 142.952 3.56 147.852 3.56C152.962 3.56 156.602 8.39 160.102 16.37H161.082C161.152 12.45 161.152 8.74 160.942 5.17C157.302 3 152.682 2.16 149.182 2.16C141.552 2.16 134.202 6.64 134.202 15.11C134.202 30.65 157.442 29.25 157.442 42.27C157.442 47.03 154.012 51.37 147.922 51.37C140.852 51.37 136.932 45.56 134.272 37.93H133.222C133.222 42.06 133.362 45.98 133.572 49.76C136.162 51.51 141.412 52.84 146.942 52.84Z" fill="white"/>
<path d="M182.821 52.77C189.191 52.77 194.301 48.64 195.701 41.92L194.231 41.57C192.201 48.85 187.091 50.74 183.451 50.74C177.361 50.74 174.281 45.21 174.281 35.06C174.281 23.09 178.411 18.61 182.821 18.61C187.231 18.61 190.311 23.02 192.271 30.51H193.251C194.161 27.99 194.931 25.4 195.561 22.81C193.181 19.66 189.401 17.21 183.521 17.21C174.561 17.21 167.631 24.42 167.631 35.27C167.631 45.35 173.791 52.77 182.821 52.77Z" fill="white"/>
<path d="M233.56 42.13V28.76C233.56 20.5 229.29 17.21 224.18 17.21C218.23 17.21 213.12 21.55 211.02 27.15C211.37 25.54 211.58 23.65 211.58 21.55V0.549999C207.87 1.18 203.67 1.39 200.8 1.39V2.3C204.44 2.86 205.98 5.1 205.98 10.7V42.34C205.98 48.5 204.3 50.32 200.8 51.16V52.14C203.46 51.86 206.05 51.79 208.71 51.79C211.3 51.79 213.96 51.86 216.55 52.14V51.16C212.56 50.39 211.58 48.5 211.58 42.34V31.56C211.58 26.03 216.76 19.59 222.08 19.59C227.47 19.59 227.75 25.82 227.75 29.6V42.13C227.75 48.01 226.56 50.39 222.78 51.16V52.14C225.51 51.86 228.17 51.79 230.76 51.79C233.28 51.79 235.73 51.86 238.18 52.14V51.16C234.68 50.32 233.56 47.8 233.56 42.13Z" fill="white"/>
<path d="M292.101 42.76V28.34C292.101 20.15 288.741 17.21 284.331 17.21C279.221 17.21 274.251 20.78 271.941 25.82C271.311 19.52 268.161 17.21 264.241 17.21C258.571 17.21 253.531 21.34 251.291 26.8C251.641 25.05 251.851 23.16 251.851 21.55V17.63C248.351 18.19 244.641 18.33 240.861 18.33V19.31C245.201 19.8 246.041 22.74 246.041 27.5V42.76C246.041 48.22 244.501 50.11 240.791 51.02V52C243.451 51.72 245.971 51.65 248.561 51.65C251.081 51.65 253.601 51.72 256.261 52V51.02C252.551 50.18 251.641 48.43 251.641 43.11V32.19C251.641 26.17 256.961 19.66 261.861 19.66C265.711 19.66 266.411 24.49 266.411 29.18V42.9C266.411 47.31 265.501 50.25 261.651 51.02V52C264.311 51.72 266.831 51.65 269.351 51.65C271.871 51.65 274.251 51.72 276.631 52V51.02C273.341 50.18 272.081 47.52 272.081 42.76V31.7C272.081 26.17 277.051 19.66 281.951 19.66C285.731 19.66 286.431 24.49 286.431 29.46V42.9C286.431 47.73 285.101 50.25 281.251 51.02V52C284.051 51.72 286.851 51.65 289.651 51.65C292.241 51.65 294.761 51.72 297.141 52V51.02C293.431 50.18 292.101 47.52 292.101 42.76Z" fill="white"/>
<path d="M307.284 11.12C309.384 11.12 311.134 9.44 311.134 7.34C311.134 5.24 309.384 3.49 307.284 3.49C305.184 3.49 303.434 5.24 303.434 7.34C303.434 9.44 305.184 11.12 307.284 11.12ZM299.864 52C302.384 51.79 305.114 51.65 307.844 51.65C310.574 51.65 313.304 51.79 315.684 52V51.02C312.534 50.32 310.504 48.36 310.504 42.97V17.63C307.074 18.19 303.154 18.33 300.004 18.33V19.31C303.364 19.8 305.184 22.6 305.184 27.64V42.97C305.184 48.29 302.664 50.39 299.864 51.02V52Z" fill="white"/>
<path d="M349.075 42.76V0.549999C344.945 1.18 341.305 1.39 338.505 1.39V2.3C342.705 2.86 343.615 5.1 343.615 10.7V17.63C343.615 18.75 343.685 20.01 343.825 21.13C341.585 18.68 338.575 17.21 335.215 17.21C328.565 17.21 319.745 22.67 319.745 34.99C319.745 45.91 326.255 52.77 333.465 52.77C338.645 52.77 342.355 48.85 343.965 43.95C343.895 44.72 343.895 45.49 343.895 46.19C343.895 48.71 344.175 50.81 344.525 52.56C347.465 52.07 350.335 52 354.255 52V51.02C350.545 50.11 349.075 47.94 349.075 42.76ZM334.095 51.09C329.055 51.09 326.395 44.93 326.395 34.99C326.395 25.12 329.265 18.89 335.775 18.89C338.785 18.89 341.655 20.43 343.615 23.37V37.51C343.615 44.37 339.695 51.09 334.095 51.09Z" fill="white"/>
<path d="M377.607 45.63C375.927 48.22 373.337 50.46 371.167 50.46C368.857 50.46 368.157 48.43 368.157 43.6V19.87H376.487V18.33H368.297V6.71H367.247C365.987 12.17 361.857 18.47 356.817 19.31V20.29H362.487V43.88C362.487 48.85 363.887 52.77 368.647 52.77C372.217 52.77 376.207 50.6 378.657 46.19L377.607 45.63Z" fill="white"/>
</svg>
